<svg xmlns="http://www.w3.org/2000/svg" viewBox="0 0 1200 1600">
	<defs>
		<style>.fa-secondary{opacity:.4};</style>
	</defs>
	<path class="fa-secondary" d="M800 0l-725 0c-0.05,0 -0.13,0 -0.19,0 -41.23,0 -74.71,33.38 -74.81,74.62l0 1450.38c0,0.05 0,0.13 0,0.19 0,41.23 33.38,74.71 74.62,74.81l1050.38 0c0.05,0 0.13,0 0.19,0 41.23,0 74.71,-33.38 74.81,-74.62l0 -1125.38 -350 0c-27.61,0 -50,-22.39 -50,-50l0 -350z"/>
	<path class="fa-primary" d="M1200 380.94l0 19.06 -350 0c-27.61,0 -50,-22.39 -50,-50l0 -350 19.06 0c0.06,0 0.13,0 0.19,0 19.84,0 38.89,7.87 52.94,21.87l305.93 306.25c14,14 21.88,33.01 21.88,52.82 0,0 0,0 0,0l0 0z"/>
    <path class="fa-primary" d="M925.77 1306.51l29.72 0c29.96,0 54.48,24.51 54.48,54.48l0 28.31c0,29.97 -24.52,54.48 -54.48,54.48l-29.72 0c-29.96,0 -54.48,-24.51 -54.48,-54.48l0 -28.31c0,-29.97 24.52,-54.48 54.48,-54.48z"/>
    <path class="fa-primary" d="M700.14 1306.51l29.71 0c29.97,0 54.48,24.51 54.48,54.48l0 28.31c0,29.97 -24.51,54.48 -54.48,54.48l-29.71 0c-29.96,0 -54.48,-24.51 -54.48,-54.48l0 -28.31c0,-29.97 24.52,-54.48 54.48,-54.48z"/>
    <path class="fa-primary" d="M472.33 1306.51l29.71 0c29.97,0 54.48,24.51 54.48,54.48l0 28.31c0,29.97 -24.51,54.48 -54.48,54.48l-29.71 0c-29.97,0 -54.48,-24.51 -54.48,-54.48l0 -28.31c0,-29.97 24.51,-54.48 54.48,-54.48z"/>
    <path class="fa-primary" d="M244.51 1306.51l29.72 0c29.96,0 54.48,24.51 54.48,54.48l0 28.31c0,29.97 -24.52,54.48 -54.48,54.48l-29.72 0c-29.96,0 -54.48,-24.51 -54.48,-54.48l0 -28.31c0,-29.97 24.52,-54.48 54.48,-54.48z"/>
    <path class="fa-primary" d="M301.32 712.59l620.51 0c47.94,0 87.17,39.23 87.17,87.17l0 331.34c0,47.94 -39.23,87.16 -87.17,87.16l-642.3 0c-47.94,0 -87.16,-39.22 -87.16,-87.16l0 -309.55c0,-59.93 49.03,-108.96 108.95,-108.96z"/>
	<polygon style="fill: white;" points="280.61,807.84 917.95,807.84 917.95,1127.21 280.61,1127.21 "/>
	<polygon class="fa-secondary" points="280.61,807.84 917.95,807.84 917.95,1127.21 280.61,1127.21 "/>
</svg>
